<svg preserveAspectRatio="none" width="100%" height="100%" overflow="visible" style="display: block;" viewBox="0 0 63.4146 22.1951" fill="none" xmlns="http://www.w3.org/2000/svg">
<path id="Sixt" d="M34.2741 11.5666L30.9737 7.50509C31.4307 7.34894 31.924 7.15721 32.3513 6.97668C33.8247 6.35454 35.1528 5.44493 36.3166 4.49594L38.1421 7.11471L43.0049 0.465992L63.4146 0.465768V5.63575H57.3731V21.6661H51.2518V5.63575H46.4313H46.3819L46.3534 5.67602L42.185 11.5695L50.1932 21.6661H42.5906L38.1457 15.6075L33.4732 21.6661H20.105V8.59322H26.0976V21.4669L34.2741 11.5666ZM9.33039 0C1.22552 0 0.00584192 4.28878 2.45265e-05 6.84536C-0.0122797 12.4042 4.60738 13.0699 8.31944 13.605C10.6713 13.944 12.529 14.2117 12.529 15.6601C12.529 16.9086 11.2297 17.4911 8.44002 17.4932C6.10804 17.4932 3.4226 16.9873 0.234029 15.9471V20.9285C2.36713 21.7806 5.06084 22.1951 8.46552 22.1951C15.3145 22.1643 18.644 19.8972 18.644 15.2645C18.644 9.73661 13.9635 9.06458 10.2026 8.52454C7.80065 8.17958 5.90335 7.9071 5.90335 6.44223C5.90335 4.93486 7.77694 4.61853 9.34874 4.61853C11.8561 4.61853 15.0509 5.46931 17.3341 6.20107V1.22527C14.4357 0.400892 11.8172 0 9.33039 0Z" fill="var(--fill-0, white)" style="fill:white;fill-opacity:1;"/>
</svg>
